<svg width="122" height="122" viewBox="0 0 122 122" fill="none" xmlns="http://www.w3.org/2000/svg">
<g filter="url(#filter0_b_873_6427)">
<rect x="1" y="1" width="120" height="120" rx="60" fill="#1A2146" fill-opacity="0.6"/>
<rect x="0.5" y="0.5" width="121" height="121" rx="60.5" stroke="#9D9D9D"/>
<path d="M59 81C59 82.1046 59.8954 83 61 83C62.1046 83 63 82.1046 63 81L59 81ZM62.4142 39.5858C61.6332 38.8047 60.3668 38.8047 59.5858 39.5858L46.8579 52.3137C46.0768 53.0948 46.0768 54.3611 46.8579 55.1421C47.6389 55.9232 48.9052 55.9232 49.6863 55.1421L61 43.8284L72.3137 55.1421C73.0948 55.9232 74.3611 55.9232 75.1421 55.1421C75.9232 54.3611 75.9232 53.0948 75.1421 52.3137L62.4142 39.5858ZM63 81L63 41L59 41L59 81L63 81Z" fill="white"/>
</g>
<defs>
<filter id="filter0_b_873_6427" x="-16.1441" y="-16.1441" width="154.288" height="154.288" filterUnits="userSpaceOnUse" color-interpolation-filters="sRGB">
<feFlood flood-opacity="0" result="BackgroundImageFix"/>
<feGaussianBlur in="BackgroundImageFix" stdDeviation="8.07206"/>
<feComposite in2="SourceAlpha" operator="in" result="effect1_backgroundBlur_873_6427"/>
<feBlend mode="normal" in="SourceGraphic" in2="effect1_backgroundBlur_873_6427" result="shape"/>
</filter>
</defs>
</svg>
