<svg width="82" height="82" viewBox="0 0 82 82" fill="none" xmlns="http://www.w3.org/2000/svg">
<g filter="url(#filter0_b_755_2320)">
<rect x="2" y="2" width="78" height="78" rx="17.5" fill="white" fill-opacity="0.05"/>
<rect x="1.375" y="1.375" width="79.25" height="79.25" rx="18.125" stroke="white" stroke-opacity="0.5" stroke-width="1.25"/>
<path fill-rule="evenodd" clip-rule="evenodd" d="M42.0738 59.5897C45.3921 56.8001 54.8923 47.7733 54.8923 35.8508C54.8923 28.2012 48.6484 22 40.9461 22C33.2439 22 27 28.2012 27 35.8508C27 47.7733 36.5002 56.8001 39.8185 59.5897C40.4694 60.1368 41.4229 60.1368 42.0738 59.5897ZM49.8852 35.851C49.8852 40.7541 45.8831 44.7288 40.9463 44.7288C36.0094 44.7288 32.0073 40.7541 32.0073 35.851C32.0073 30.9479 36.0094 26.9732 40.9463 26.9732C45.8831 26.9732 49.8852 30.9479 49.8852 35.851Z" fill="white"/>
</g>
<defs>
<filter id="filter0_b_755_2320" x="-19.4301" y="-19.4301" width="120.86" height="120.86" filterUnits="userSpaceOnUse" color-interpolation-filters="sRGB">
<feFlood flood-opacity="0" result="BackgroundImageFix"/>
<feGaussianBlur in="BackgroundImageFix" stdDeviation="10.0901"/>
<feComposite in2="SourceAlpha" operator="in" result="effect1_backgroundBlur_755_2320"/>
<feBlend mode="normal" in="SourceGraphic" in2="effect1_backgroundBlur_755_2320" result="shape"/>
</filter>
</defs>
</svg>
