<svg width="295" height="88" viewBox="0 0 295 88" fill="none" xmlns="http://www.w3.org/2000/svg">
<g clip-path="url(#clip0_913_15348)">
<path d="M294.023 0.977783H0.976562V87.0222H294.023V0.977783Z" fill="#3549B5" stroke="white" stroke-width="1.31111" stroke-miterlimit="10"/>
<path d="M269.056 61.6389H44.1523V64.4354H269.056V61.6389Z" fill="white"/>
<path d="M84.9835 56.0853C82.5415 56.0853 80.3534 55.5964 78.4388 54.599C76.5243 53.6213 75.059 52.2524 74.0431 50.5315C73.0077 48.8106 72.4998 46.855 72.4998 44.6648C72.4998 43.8239 72.5974 42.9048 72.7733 41.927C73.2812 39.3066 74.3948 36.9208 76.114 34.7502C77.8332 32.5795 79.9627 30.8782 82.5024 29.6266C85.0226 28.375 87.6796 27.7493 90.4733 27.7493C94.3219 27.7493 97.4282 28.903 99.7726 31.2302L94.3219 37.2924C93.7554 36.5884 93.013 36.0213 92.1143 35.591C91.2157 35.1608 90.1998 34.9457 89.1057 34.9457C87.2107 34.9457 85.4915 35.6106 83.9872 36.9404C82.4829 38.2702 81.5256 39.9128 81.1544 41.9075C81.0567 42.4746 80.9981 42.983 80.9981 43.4524C80.9981 45.0559 81.4865 46.3662 82.4633 47.3635C83.4402 48.3608 84.7491 48.8693 86.3706 48.8693C87.4647 48.8693 88.5782 48.6346 89.7309 48.1262C90.8835 47.6373 91.8994 47.0115 92.8176 46.2488L96.0802 52.2719C92.72 54.7946 89.0276 56.0657 84.9835 56.0657V56.0853Z" fill="white"/>
<path d="M99.0691 55.6161L104.383 28.2383H122.591L121.223 35.2001H111.377L110.752 38.4463H119.66L118.352 45.2516H109.443L108.779 48.6543H118.977L117.629 55.6161H99.0691Z" fill="white"/>
<path d="M134.449 47.2463H131.792L130.171 55.6161H121.809L127.123 28.2383H138.142C140.584 28.2383 142.557 28.9423 144.061 30.3698C145.566 31.7974 146.328 33.6161 146.328 35.8454C146.328 36.4907 146.269 37.1361 146.132 37.7423C145.605 40.4409 144.237 42.7094 141.99 44.5281C139.763 46.3467 137.243 47.2658 134.43 47.2658L134.449 47.2463ZM133.023 40.9103H134.469C135.329 40.9103 136.09 40.6169 136.755 40.0107C137.419 39.4241 137.829 38.6614 138.005 37.7227C138.064 37.5076 138.083 37.2534 138.083 36.9796C138.083 36.2561 137.868 35.6694 137.438 35.2196C137.009 34.7698 136.423 34.5547 135.7 34.5547H134.254L133.023 40.8907V40.9103Z" fill="white"/>
<path d="M158.303 55.6161H146.073L151.387 28.2383H162.562C164.809 28.2383 166.606 28.7858 167.935 29.9005C169.263 31.0152 169.927 32.4623 169.927 34.2418C169.927 34.7307 169.888 35.2196 169.791 35.6694C169.537 36.9405 168.99 38.0943 168.13 39.1503C167.271 40.2063 166.255 40.9494 165.082 41.3796C166.235 41.7121 167.153 42.3183 167.798 43.1592C168.443 44.0001 168.775 45.0365 168.775 46.2294C168.775 46.6987 168.736 47.1485 168.638 47.5983C168.189 49.8863 166.997 51.8027 165.024 53.3281C163.051 54.8534 160.823 55.6161 158.303 55.6161ZM160.628 47.0507C160.648 46.9138 160.667 46.7769 160.667 46.6009C160.667 46.0925 160.511 45.6818 160.198 45.369C159.886 45.0561 159.436 44.8996 158.889 44.8996H156.115L155.275 49.2018H158.049C158.674 49.2018 159.222 49.0063 159.71 48.5956C160.198 48.185 160.491 47.6765 160.628 47.0507ZM162.093 36.6863C162.113 36.5494 162.132 36.393 162.132 36.217C162.132 35.7281 161.996 35.3565 161.703 35.0827C161.41 34.809 161.019 34.6525 160.53 34.6525H158.108L157.307 38.7201H159.729C160.296 38.7201 160.804 38.5245 161.253 38.1529C161.703 37.7814 161.976 37.2925 162.093 36.6863Z" fill="white"/>
<path d="M199.018 28.2383L193.704 55.6161H186.124L189.191 39.7369L180.028 55.6161H170.885L176.199 28.2383H183.779L180.693 44.1174L189.875 28.2383H199.018Z" fill="white"/>
<path d="M212.517 56.0854C210.075 56.0854 207.887 55.5965 205.992 54.5992C204.078 53.6214 202.612 52.2525 201.597 50.5316C200.561 48.8107 200.053 46.8552 200.053 44.6649C200.053 43.8241 200.151 42.9049 200.327 41.9272C200.835 39.3067 201.948 36.9209 203.667 34.7503C205.387 32.5796 207.516 30.8783 210.036 29.6267C212.557 28.3752 215.213 27.7494 218.007 27.7494C221.856 27.7494 224.962 28.9032 227.307 31.2303L221.856 37.2925C221.289 36.5885 220.547 36.0214 219.629 35.5912C218.73 35.1609 217.714 34.9458 216.62 34.9458C214.725 34.9458 213.006 35.6107 211.502 36.9405C209.997 38.2703 209.04 39.9129 208.669 41.9076C208.571 42.4747 208.512 42.9832 208.512 43.4525C208.512 45.0561 209.001 46.3663 209.978 47.3636C210.955 48.3609 212.263 48.8694 213.885 48.8694C214.979 48.8694 216.093 48.6347 217.245 48.1263C218.398 47.6178 219.414 47.0116 220.332 46.2489L223.595 52.2721C220.234 54.7947 216.542 56.0658 212.498 56.0658L212.517 56.0854Z" fill="white"/>
<path d="M240.728 46.2294H227.99L229.377 39.033H242.115L240.728 46.2294Z" fill="white"/>
<path d="M262.569 48.0285H256.552L254.481 39.1503L251.297 55.6161H243.717L249.03 28.2383H258.799L261.299 39.0329L268.02 28.2383H277.788L272.474 55.6161H264.894L268.078 39.1503L262.569 48.0285Z" fill="white"/>
<path d="M23.4438 31.4844L22.0372 41.3208H56.558V43.0417H21.8027L21.1776 47.4613H41.0852V49.1821H20.9236L20.5329 51.9199H36.7676V53.6408H20.2789L17.1921 75.3475V75.8168L48.0792 47.3244H58.3163L71.0541 32.0515L23.4243 31.4844H23.4438ZM22.8382 37.4879V35.767H60.2309V37.4879H22.8382Z" fill="white"/>
<path d="M45.1293 27.4561C51.5492 27.4561 56.7535 24.0415 56.7535 19.8294C56.7535 15.6173 51.5492 12.2028 45.1293 12.2028C38.7094 12.2028 33.5051 15.6173 33.5051 19.8294C33.5051 24.0415 38.7094 27.4561 45.1293 27.4561Z" fill="white"/>
</g>
<defs>
<clipPath id="clip0_913_15348">
<rect width="295" height="88" fill="white"/>
</clipPath>
</defs>
</svg>
