<svg width="122" height="122" viewBox="0 0 122 122" fill="none" xmlns="http://www.w3.org/2000/svg">
<g filter="url(#filter0_b_876_6455)">
<rect x="1" y="1" width="120" height="120" rx="60" fill="#1A2146" fill-opacity="0.6"/>
<rect x="0.5" y="0.5" width="121" height="121" rx="60.5" stroke="#9D9D9D"/>
<path d="M75.3969 65.4768C75.28 65.4207 70.9059 63.2668 70.1286 62.987C69.8113 62.8731 69.4713 62.7618 69.1098 62.7618C68.5191 62.7618 68.0229 63.0562 67.6364 63.6344C67.1995 64.2839 65.8768 65.83 65.4681 66.2919C65.4147 66.3529 65.3418 66.4257 65.2982 66.4257C65.259 66.4257 64.5821 66.147 64.3772 66.0579C59.6849 64.0197 56.1233 59.1182 55.6349 58.2916C55.5651 58.1728 55.5622 58.1189 55.5616 58.1189C55.5788 58.0559 55.7366 57.8978 55.818 57.8161C56.0563 57.5804 56.3144 57.2697 56.5641 56.9691C56.6824 56.8267 56.8008 56.6841 56.9171 56.5497C57.2794 56.1281 57.4407 55.8009 57.6277 55.4218L57.7257 55.2248C58.1824 54.3176 57.7924 53.552 57.6663 53.3048C57.5629 53.0979 55.7159 48.6404 55.5196 48.1721C55.0474 47.042 54.4234 46.5159 53.5563 46.5159C53.4759 46.5159 53.5563 46.5159 53.2189 46.5301C52.8081 46.5474 50.5707 46.842 49.5815 47.4655C48.5325 48.1269 46.7578 50.2351 46.7578 53.9426C46.7578 57.2794 48.8753 60.43 49.7845 61.6283C49.8071 61.6585 49.8486 61.7198 49.9088 61.8079C53.3905 66.8927 57.731 70.661 62.1311 72.4187C66.3671 74.1108 68.373 74.3064 69.5134 74.3064H69.5136C69.9928 74.3064 70.3764 74.2688 70.7148 74.2355L70.9294 74.215C72.3928 74.0853 75.6087 72.4189 76.3401 70.3861C76.9164 68.785 77.0683 67.0357 76.685 66.4008C76.4224 65.9691 75.9698 65.7519 75.3969 65.4768Z" fill="#00A91A"/>
<path d="M61.5325 31C45.2827 31 32.0624 44.1209 32.0624 60.2486C32.0624 65.4649 33.4584 70.571 36.1029 75.0398L31.0413 89.9706C30.947 90.249 31.0171 90.5568 31.223 90.7664C31.3716 90.9182 31.5733 91 31.7792 91C31.8581 91 31.9376 90.9881 32.0151 90.9634L47.5839 86.0161C51.8443 88.2924 56.6595 89.494 61.5327 89.494C77.7811 89.4942 90.9999 76.3746 90.9999 60.2486C90.9999 44.1209 77.7811 31 61.5325 31ZM61.5325 83.4014C56.947 83.4014 52.5057 82.0773 48.6879 79.5721C48.5595 79.4878 48.4105 79.4445 48.2605 79.4445C48.1812 79.4445 48.1017 79.4566 48.0244 79.4812L40.2253 81.9603L42.743 74.5325C42.8244 74.2921 42.7837 74.027 42.6337 73.8221C39.7264 69.8496 38.1896 65.1562 38.1896 60.2486C38.1896 47.4805 48.6612 37.0927 61.5324 37.0927C74.402 37.0927 84.8724 47.4805 84.8724 60.2486C84.8725 73.0152 74.4024 83.4014 61.5325 83.4014Z" fill="#00A91A"/>
</g>
<defs>
<filter id="filter0_b_876_6455" x="-24" y="-24" width="170" height="170" filterUnits="userSpaceOnUse" color-interpolation-filters="sRGB">
<feFlood flood-opacity="0" result="BackgroundImageFix"/>
<feGaussianBlur in="BackgroundImageFix" stdDeviation="12"/>
<feComposite in2="SourceAlpha" operator="in" result="effect1_backgroundBlur_876_6455"/>
<feBlend mode="normal" in="SourceGraphic" in2="effect1_backgroundBlur_876_6455" result="shape"/>
</filter>
</defs>
</svg>
