<svg width="644" height="514" viewBox="0 0 644 514" fill="none" xmlns="http://www.w3.org/2000/svg">
<g clip-path="url(#clip0_755_2362)">
<path d="M69.0262 286.007C69.0262 289.805 65.9456 292.898 62.147 292.898C58.3485 292.898 55.2549 289.818 55.2549 286.007C55.2549 282.196 58.3355 279.129 62.147 279.129C65.9586 279.129 69.0262 282.209 69.0262 286.007Z" fill="#DCF6F6"/>
<path d="M575.917 218.76C581.222 212.635 580.556 203.371 574.43 198.067C568.304 192.764 559.039 193.429 553.734 199.554C548.43 205.679 549.096 214.943 555.221 220.247C561.347 225.55 570.613 224.885 575.917 218.76Z" fill="#DCF6F6"/>
<path d="M339.413 94.4263C347.516 94.4263 354.085 87.8584 354.085 79.7566C354.085 71.6548 347.516 65.0869 339.413 65.0869C331.31 65.0869 324.741 71.6548 324.741 79.7566C324.741 87.8584 331.31 94.4263 339.413 94.4263Z" fill="#DCF6F6"/>
<path d="M110.131 182.601C119.359 182.601 126.839 175.122 126.839 165.895C126.839 156.669 119.359 149.19 110.131 149.19C100.903 149.19 93.4229 156.669 93.4229 165.895C93.4229 175.122 100.903 182.601 110.131 182.601Z" fill="#DCF6F6"/>
<path d="M244.776 114.852C244.776 118.65 241.696 121.743 237.884 121.743C234.073 121.743 231.005 118.663 231.005 114.852C231.005 111.041 234.086 107.961 237.884 107.961C241.683 107.961 244.776 111.041 244.776 114.852Z" fill="#DCF6F6"/>
<path d="M605.78 311.822C605.78 315.62 602.699 318.713 598.888 318.713C595.076 318.713 591.996 315.633 591.996 311.822C591.996 308.011 595.076 304.944 598.888 304.944C602.699 304.944 605.78 308.024 605.78 311.822Z" fill="#DCF6F6"/>
<path d="M583.315 416.572C583.315 451.014 576.645 483.891 564.505 514.013H80.3043C68.1646 483.904 61.4944 451.014 61.4944 416.572C61.4944 272.498 178.322 155.715 322.405 155.715C466.488 155.715 583.315 272.512 583.315 416.572Z" fill="#DCF6F6"/>
<path d="M153.507 199.737V198.393H153.09L152.685 198.785L146.876 204.371L141.094 198.785L140.676 198.393H138.235L137.83 198.785L132.035 204.371L126.252 198.785L125.834 198.393H123.393L122.989 198.785L117.193 204.371L111.41 198.785L110.993 198.393H108.552L108.147 198.785L102.351 204.371L96.5687 198.785L96.1509 198.393H93.71L93.3053 198.785L87.5096 204.371L81.7139 198.785L81.3093 198.393H78.8814L78.4767 198.785L72.681 204.371L66.8853 198.785L66.4807 198.393H64.0528L63.6481 198.785L57.8524 204.371L52.0567 198.785L51.6521 198.393H49.2242L48.8064 198.785L43.0108 204.371L41.8751 203.274V205.01L42.1101 205.232L41.8751 205.454V207.19L43.0108 206.093L49.3547 212.201L49.7593 212.593H51.1038L51.5215 212.201L57.8524 206.093L64.1963 212.201L64.601 212.593H65.9455L66.3632 212.201L72.681 206.106L79.0249 212.201L79.3252 212.502L79.4165 212.593H80.7741L81.1787 212.201L87.5096 206.093L93.8536 212.201L94.2582 212.593H95.6158L96.0204 212.201L102.351 206.093L108.695 212.201L109.113 212.593H110.457L110.862 212.201L117.193 206.093L123.55 212.201L123.955 212.593H125.299L125.704 212.201L132.035 206.093L138.379 212.201L138.796 212.593H140.141L140.558 212.201L146.876 206.093L153.05 212.019L153.494 212.462V210.727L153.05 210.296L147.777 205.219L153.05 200.155L153.494 199.724L153.507 199.737ZM50.4903 211.51L43.9767 205.232L50.4903 198.954L57.017 205.232L50.4903 211.51ZM65.3189 211.51L58.8053 205.232L65.3189 198.954L71.8326 205.232L65.3189 211.51ZM80.1475 211.51L73.6339 205.232L80.1475 198.954L86.6742 205.232L80.1475 211.51ZM94.9892 211.51L88.4756 205.232L94.9892 198.954L101.503 205.232L94.9892 211.51ZM109.818 211.51L103.291 205.232L109.818 198.954L116.331 205.232L109.818 211.51ZM124.646 211.51L118.12 205.232L124.646 198.954L131.16 205.232L124.646 211.51ZM139.475 211.51L132.948 205.232L139.475 198.954L145.989 205.232L139.475 211.51Z" fill="#596774"/>
<path d="M153.064 198.772H41.9535V212.201H153.064V198.772Z" stroke="#596774" stroke-width="2.29" stroke-miterlimit="10"/>
<path d="M79.3774 189.479H40.3218V218.035H79.3774V189.479Z" fill="#596774"/>
<path d="M367.008 190.275L358.902 198.38L350.509 189.988L358.288 182.209L357.087 181.087L349.347 188.84L341.175 180.669L340.653 180.147H338.917L338.395 180.669L330.237 188.84L321.543 180.147H319.807L319.285 180.669L311.127 188.84L302.433 180.147H300.697L300.175 180.669L292.016 188.84L283.845 180.669L283.323 180.147H281.587L281.065 180.669L272.906 188.84L264.735 180.669L264.213 180.147H262.477L261.955 180.669L253.796 188.84L245.103 180.147H243.367L242.845 180.669L234.686 188.84L226.515 180.669L225.993 180.147H224.257L223.734 180.669L215.576 188.84L207.405 180.669L206.883 180.147H205.146L204.624 180.669L196.466 188.84L187.942 180.317V182.627L188.007 182.692L195.304 189.988L188.53 196.762L188.007 197.284L187.942 197.349V199.137H188.477L188.999 198.615L196.466 191.15L203.919 198.615L204.442 199.137H207.574L208.097 198.615L215.563 191.15L223.016 198.615L223.539 199.137H226.671L234.66 191.15L242.114 198.615L242.636 199.137H245.768L246.291 198.615L253.757 191.15L261.211 198.615L261.733 199.137H264.866L272.854 191.15L280.321 198.615L280.843 199.137H283.963L291.951 191.15L299.418 198.615L299.94 199.137H303.06L303.582 198.615L311.048 191.15L318.515 198.615L319.037 199.137H322.157L322.679 198.615L330.145 191.15L338.134 199.137H341.254L349.242 191.15L356.709 198.615L357.231 199.137H360.351L360.873 198.615L368.104 191.385L366.891 190.262L367.008 190.275ZM206.086 198.38L197.693 189.988L206.086 181.596L214.48 189.988L206.086 198.38ZM225.183 198.38L216.79 189.988L225.183 181.596L233.577 189.988L225.183 198.38ZM244.28 198.38L235.887 189.988L244.28 181.596L252.674 189.988L244.28 198.38ZM263.377 198.38L254.984 189.988L263.377 181.596L271.771 189.988L263.377 198.38ZM282.474 198.38L274.081 189.988L282.474 181.596L290.868 189.988L282.474 198.38ZM301.572 198.38L293.178 189.988L301.572 181.596L309.965 189.988L301.572 198.38ZM320.669 198.38L312.275 189.988L320.669 181.596L329.062 189.988L320.669 198.38ZM339.766 198.38L331.372 189.988L339.766 181.596L348.159 189.988L339.766 198.38Z" fill="#596774"/>
<path d="M376.041 198.628H188.595V180.682H356.63L357.087 181.1L358.288 182.209L367.008 190.275L368.222 191.398L376.041 198.628Z" stroke="#596774" stroke-width="2.29" stroke-miterlimit="10"/>
<path d="M79.4949 198.889L78.3854 197.884L170.79 95.6661L281.561 180.082L280.647 181.27L170.973 97.6891L79.4949 198.889Z" fill="#596774"/>
<path d="M228.76 197.61V207.098H188.073V163.259H194.39C203.162 163.259 211.177 166.548 217.247 171.964C222.703 176.806 226.58 183.358 228.081 190.758C228.525 192.964 228.773 195.274 228.773 197.61H228.76Z" fill="#596774"/>
<path d="M198.085 171.964H196.335C193.891 171.964 191.91 173.945 191.91 176.389V186.608C191.91 189.051 193.891 191.032 196.335 191.032H198.085C200.528 191.032 202.51 189.051 202.51 186.608V176.389C202.51 173.945 200.528 171.964 198.085 171.964Z" fill="#748593"/>
<path d="M228.068 190.758C227.611 190.941 227.089 191.032 226.554 191.032H211.882C209.454 191.032 207.457 189.048 207.457 186.608V176.389C207.457 173.935 209.441 171.951 211.882 171.951H217.234C222.69 176.793 226.567 183.345 228.068 190.745V190.758Z" fill="#748593"/>
<path d="M188.073 480.98L173.492 466.402L188.073 451.824V446.12L173.492 431.542L188.073 416.964V411.26L173.492 396.682L188.073 382.103V376.4L173.492 361.822L188.073 347.243V341.54L173.492 326.962L188.073 312.383V306.68L173.492 292.102L188.073 277.523V271.82L173.492 257.241L188.073 242.663V236.96L173.492 222.381L188.073 207.803V202.1L173.492 187.521L188.073 172.943V167.24L173.492 152.661L176.116 150.038H171.886L171.377 150.547L170.868 150.038H166.639L169.263 152.661L153.416 168.506V171.664L169.263 187.508L153.416 203.353V206.511L169.263 222.355L153.416 238.2V241.358L169.263 257.202L153.416 273.047V276.205L169.263 292.049L153.416 307.894V311.052L169.263 326.896L153.416 342.741V345.899L169.263 361.743L153.416 377.588V380.746L169.263 396.59L153.416 412.435V415.593L169.263 431.437L153.416 447.282V450.44L169.263 466.284L153.716 481.829H157.946L171.39 468.386L184.835 481.829H188.086V480.85L188.073 480.98ZM156.066 170.111L171.39 154.789L186.715 170.111L171.39 185.433L156.066 170.111ZM156.066 204.971L171.39 189.649L186.715 204.971L171.39 220.293L156.066 204.971ZM156.066 239.831L171.39 224.509L186.715 239.831L171.39 255.153L156.066 239.831ZM156.066 274.691L171.39 259.369L186.715 274.691L171.39 290.013L156.066 274.691ZM156.066 309.551L171.39 294.229L186.715 309.551L171.39 324.873L156.066 309.551ZM156.066 344.411L171.39 329.089L186.715 344.411L171.39 359.733L156.066 344.411ZM156.066 379.271L171.39 363.949L186.715 379.271L171.39 394.594L156.066 379.271ZM156.066 414.131L171.39 398.809L186.715 414.131L171.39 429.454L156.066 414.131ZM156.066 448.991L171.39 433.669L186.715 448.991L171.39 464.314L156.066 448.991Z" fill="#596774"/>
<path d="M216.046 480.458H126.722V489.124H216.046V480.458Z" fill="#596774"/>
<path d="M188.086 150.064H153.429V481.959H188.086V150.064Z" stroke="#596774" stroke-width="2.29" stroke-linecap="round" stroke-linejoin="round"/>
<path d="M172.122 134.52L180.397 126.232L179.366 123.048L170.02 132.393L161.77 124.144L160.739 127.342L167.905 134.507L153.925 148.472L152.346 150.051H156.575L170.02 136.608L183.465 150.051H186.702V149.085L172.122 134.507V134.52Z" fill="#596774"/>
<path d="M188.073 150.064H153.429L153.925 148.485L160.739 127.355L161.77 124.157L168.48 103.314L170.477 97.0887L170.751 96.2665L170.881 96.6841L173.701 105.455L179.366 123.048L180.397 126.232L188.073 150.064Z" stroke="#596774" stroke-width="2.29" stroke-linecap="round" stroke-linejoin="round"/>
<path d="M171.156 97.924C169.145 97.924 167.514 96.2926 167.514 94.2827V86.3606C167.514 84.3506 169.145 82.7192 171.156 82.7192C173.166 82.7192 174.797 84.3506 174.797 86.3606V94.2827C174.797 96.2926 173.166 97.924 171.156 97.924Z" fill="#596774"/>
<path d="M339.609 251.016C339.596 252.674 339.883 254.24 340.131 255.858C340.249 256.641 340.418 257.372 340.719 257.959C341.019 258.547 341.371 258.912 341.985 259.33C342.572 259.747 343.355 260.165 344.086 260.922C344.817 261.692 345.3 262.619 345.614 263.506C345.927 264.407 346.083 265.255 346.201 266.169C346.305 267.082 346.318 268.061 346.123 269.066C345.144 273.242 340.588 275.67 336.737 274.286C332.9 272.825 331.503 268.061 333.396 265.216C332.743 268.466 334.962 271.52 337.429 272.055C339.883 272.616 342.781 270.723 343.199 268.439C343.486 267.278 343.264 265.699 342.925 264.354C342.755 263.689 342.507 263.115 342.141 262.671C341.776 262.214 341.175 261.744 340.51 261.118C339.844 260.53 339.113 259.591 338.891 258.625C338.63 257.672 338.63 256.759 338.682 255.923C338.839 254.279 338.943 252.569 339.622 251.016H339.609Z" fill="#596774"/>
<path d="M343.773 242.741V202.087C344.7 201.304 345.352 200.233 345.613 199.006H334.805C335.053 200.181 335.667 201.212 336.528 201.982H336.502V242.715H335.967C333.852 242.715 332.129 244.438 332.129 246.552V249.11C332.129 251.225 333.852 252.948 335.967 252.948H343.773C345.822 252.856 347.467 251.186 347.467 249.11V246.552C347.467 244.477 345.822 242.807 343.773 242.728V242.741Z" fill="#596774"/>
<path d="M522.93 64.7867V51.9312H521.573V64.7867H519.458C518.166 64.7867 517.108 65.8439 517.108 67.136V87.1828H492.686V70.2813C492.686 68.9762 491.628 67.9191 490.323 67.9191H489.018H456.11V50.9915C456.11 49.6994 455.053 48.6423 453.761 48.6423H419.704V37.7314C419.704 36.4393 418.647 35.3821 417.355 35.3821H407.8V15.2178C407.8 13.9258 406.742 12.8686 405.45 12.8686H403.335V0H401.978V12.8555H399.863C398.571 12.8555 397.514 13.9127 397.514 15.2048V35.3821V514.013H527.421V67.136C527.421 65.8439 526.363 64.7867 525.071 64.7867H522.956H522.93Z" fill="#596774"/>
<path d="M502.384 125.214H421.793C417.107 125.214 413.308 129.012 413.308 133.698V147.049C413.308 151.734 417.107 155.533 421.793 155.533H502.384C507.07 155.533 510.869 151.734 510.869 147.049V133.698C510.869 129.012 507.07 125.214 502.384 125.214Z" fill="#748593"/>
<path d="M502.384 178.816H421.793C417.107 178.816 413.308 182.614 413.308 187.299V200.651C413.308 205.336 417.107 209.134 421.793 209.134H502.384C507.07 209.134 510.869 205.336 510.869 200.651V187.299C510.869 182.614 507.07 178.816 502.384 178.816Z" fill="#748593"/>
<path d="M502.384 233.253H421.793C417.107 233.253 413.308 237.051 413.308 241.737V255.088C413.308 259.773 417.107 263.571 421.793 263.571H502.384C507.07 263.571 510.869 259.773 510.869 255.088V241.737C510.869 237.051 507.07 233.253 502.384 233.253Z" fill="#748593"/>
<path d="M502.384 287.56H421.793C417.107 287.56 413.308 291.358 413.308 296.043V309.395C413.308 314.08 417.107 317.878 421.793 317.878H502.384C507.07 317.878 510.869 314.08 510.869 309.395V296.043C510.869 291.358 507.07 287.56 502.384 287.56Z" fill="#748593"/>
<path d="M502.384 341.931H421.793C417.107 341.931 413.308 345.73 413.308 350.415V363.766C413.308 368.452 417.107 372.25 421.793 372.25H502.384C507.07 372.25 510.869 368.452 510.869 363.766V350.415C510.869 345.73 507.07 341.931 502.384 341.931Z" fill="#748593"/>
<path d="M502.384 392.453H421.793C417.107 392.453 413.308 396.251 413.308 400.936V414.288C413.308 418.973 417.107 422.771 421.793 422.771H502.384C507.07 422.771 510.869 418.973 510.869 414.288V400.936C510.869 396.251 507.07 392.453 502.384 392.453Z" fill="#748593"/>
<path d="M502.384 446.89H421.793C417.107 446.89 413.308 450.688 413.308 455.373V468.725C413.308 473.41 417.107 477.208 421.793 477.208H502.384C507.07 477.208 510.869 473.41 510.869 468.725V455.373C510.869 450.688 507.07 446.89 502.384 446.89Z" fill="#748593"/>
<mask id="mask0_755_2362" style="mask-type:luminance" maskUnits="userSpaceOnUse" x="52" y="264" width="510" height="250">
<path d="M561.829 264.289H52.3439V514H561.829V264.289Z" fill="white"/>
</mask>
<g mask="url(#mask0_755_2362)">
<path d="M149.226 512.956V279.285L253.613 311.052L369.632 293.211L371.577 292.924L482.765 322.394V544.71L369.632 513.034L369.292 512.956L264.944 544.71L264.056 544.462L149.226 512.956Z" fill="white"/>
<path d="M253.613 311.052L369.632 293.211V513.034L369.292 512.956L264.944 544.71L264.056 544.462L253.613 311.052Z" fill="#F0F1F2"/>
<path d="M162.07 505.177V289.517L258.417 318.831L365.494 302.373L367.295 302.099L469.92 329.298V534.491L365.494 505.256L365.18 505.177L268.873 534.491L268.05 534.256L162.07 505.177Z" stroke="#B5E8E9" stroke-width="1.06" stroke-miterlimit="10"/>
<path d="M369.632 333.252L431.609 345.26L431.674 433.46H369.632V333.252Z" fill="#F0F1F2"/>
<path d="M369.632 433.46L332.651 447.778V340.404L369.632 333.252V433.46Z" fill="#E4E4E4"/>
<path d="M332.651 340.404L277.54 351.563L278.95 383.356L332.651 377.392V340.404Z" fill="#E4E4E4"/>
<path d="M269.408 479.975H305.801V415.554H269.408V479.975Z" fill="#E4E4E4"/>
<path d="M182.786 336.593L241.539 352.372L239.934 383.356L181.533 369.013L182.786 336.593Z" fill="#F0F1F2"/>
<path d="M369.736 410.112C357.636 408.363 333.526 409.237 321.478 411.299C319.794 411.586 318.045 411.9 316.674 412.931C315.539 413.779 314.781 415.019 314.116 416.259C305.553 432.207 308.046 451.615 311.44 469.391C313.385 479.571 315.721 490.103 322.131 498.234C331.438 510.032 347.206 514.313 361.982 517.067C390.138 522.301 418.751 524.493 447.299 526.686C459.308 527.613 471.317 528.526 483.313 529.453L369.736 410.112Z" fill="#D76E4E"/>
<path d="M488.926 529.061C483.274 530.353 477.387 529.531 471.657 528.722C453.225 526.086 434.794 523.462 416.35 520.826C404.158 519.09 391.875 517.328 380.244 513.295C368.6 509.249 357.518 502.724 349.999 492.974C346.201 488.054 343.408 482.429 340.849 476.739C334.231 461.899 328.031 441.8 339.988 428.318C360.142 405.609 386.196 385.171 415.057 376.57C434.546 370.749 455.327 370.344 476.447 378.292C496.562 385.888 515.816 401.876 525.658 421.845C529.64 429.845 532.094 438.498 532.472 447.491C532.511 448.326 532.524 449.148 532.537 449.983C532.564 472.262 524.092 494.097 510.843 512.003C505.217 519.612 498.142 526.947 488.913 529.035L488.926 529.061Z" fill="#E97C51"/>
<path d="M532.498 447.504C528.021 440.547 522.121 432.756 514.393 425.003C504.93 415.515 492.934 403.455 473.223 397.452C456.854 392.453 442.469 394.463 430.891 395.964C418.464 397.569 419.939 397.687 412.969 400.245L417.133 381.242C427.092 377.235 438.488 377.979 448.931 379.31C478.849 383.161 506.209 399.096 525.671 421.858C529.653 429.858 532.107 438.511 532.485 447.504H532.498Z" fill="#D76E4E"/>
<path d="M529.862 432.299C526.246 428.671 522.565 425.121 518.714 421.753C514.902 418.347 510.96 415.097 506.901 411.991C498.808 405.792 490.271 400.101 481.016 395.833C476.421 393.667 471.657 391.827 466.775 390.443C461.893 389.034 456.867 388.159 451.816 387.598C446.751 387.102 441.634 387.037 436.556 387.494C431.478 387.898 426.44 388.877 421.532 390.365C426.335 388.577 431.387 387.454 436.478 386.815C441.582 386.215 446.764 386.149 451.894 386.528C462.18 387.311 472.257 390.234 481.59 394.58C490.897 399.018 499.526 404.734 507.54 411.156C515.555 417.564 523.048 424.638 529.835 432.299H529.862Z" fill="#E97C51"/>
<path d="M417.133 381.242L421.506 390.221L412.969 400.245L408.217 391.683L417.133 381.242Z" fill="#C9634B"/>
<path d="M498.09 482.716L427.549 461.012C423.934 459.902 419.991 461.038 417.537 463.922L413.413 468.764C408.792 474.194 411.585 482.599 418.543 484.165L493.208 501.027C497.124 501.915 501.17 500.231 503.311 496.838C506.653 491.552 504.055 484.543 498.09 482.703V482.716Z" fill="#D76E4E"/>
<path opacity="0.1" d="M325.746 489.072C323.201 481.581 321.674 473.75 321.23 465.854C321.151 464.353 321.112 462.787 321.804 461.455C322.013 461.051 322.326 460.646 322.77 460.516C323.867 460.163 324.689 461.534 325.002 462.643C327.287 470.761 327.652 479.636 332.116 486.814C334.414 490.508 337.651 493.496 340.784 496.511C341.554 497.255 342.376 498.378 341.815 499.278C341.319 500.087 340.131 500.009 339.217 499.774C333.578 498.338 327.678 494.71 325.759 489.072H325.746Z" fill="white"/>
<path opacity="0.1" d="M319.441 424.82C319.82 421.427 322.431 418.621 325.472 417.081C328.514 415.541 331.96 415.045 335.34 414.575C336.189 414.458 337.246 414.419 337.729 415.136C334.962 418.034 330.263 417.955 326.882 420.109C324.049 421.923 323.488 424.886 321.373 427.144C319.455 429.167 319.207 427 319.441 424.834V424.82Z" fill="white"/>
<path opacity="0.1" d="M409.666 427.861C429.364 417.59 455.157 417.982 472.544 431.803C473.51 432.573 474.515 433.486 474.659 434.713C474.828 436.201 473.588 437.572 472.166 438.054C470.743 438.537 469.189 438.368 467.701 438.211C456.684 436.997 445.589 436.554 434.52 436.88C428.58 437.049 422.602 437.454 416.846 438.955C403.857 442.322 392.932 450.949 382.802 459.772C377.281 464.575 374.044 469.482 370.363 475.577C375.231 456.131 392.162 436.997 409.666 427.874V427.861Z" fill="white"/>
<path opacity="0.1" d="M379.187 396.786C380.401 395.716 381.732 394.633 383.325 394.372C384.93 394.111 386.836 395.037 387.045 396.643C387.241 398.143 385.987 399.396 384.839 400.375C378.443 405.857 372.046 411.351 365.637 416.833C362.243 419.743 359.006 423.098 355.443 425.76C353.863 423.398 363.288 413.322 365.18 411.077C369.488 405.974 374.161 401.197 379.174 396.786H379.187Z" fill="white"/>
<path d="M205.695 533.995L94.7672 512.812L122.479 453.82L133 431.437L144.004 407.984L154.525 385.601L176.729 338.316C180.684 329.898 193.255 332.3 193.842 341.579L197.119 394.724L198.659 419.691L200.264 445.859L201.805 470.826L205.695 533.982V533.995Z" fill="#E97C51"/>
<path d="M198.659 419.704L144.005 407.971L154.526 385.588L197.119 394.724L198.659 419.704Z" fill="white"/>
<path d="M201.805 470.839L122.479 453.82L133 431.437L200.264 445.859L201.805 470.839Z" fill="white"/>
<path opacity="0.1" d="M186.898 342.506L153.116 515.892L199.703 520.134L191.519 344.281L186.898 342.506Z" fill="white"/>
<path d="M333.839 524.689L256.094 429.571C260.506 419.652 259.344 407.658 251.982 398.679C247.491 393.184 241.435 389.712 234.973 388.394C234.973 388.394 234.969 388.39 234.96 388.381C231.697 387.715 228.329 387.598 225.014 388.029L240.299 406.718L216.203 426.413L200.917 407.723C197.654 417.146 199.207 427.992 205.982 436.266C213.331 445.259 224.857 448.809 235.456 446.446L313.202 541.564C317.862 547.255 326.255 548.103 331.947 543.444C334.753 541.147 336.385 537.949 336.75 534.608C337.142 531.163 336.189 527.586 333.839 524.689ZM327.939 538.537C324.493 541.356 319.415 540.847 316.596 537.401C313.789 533.956 314.298 528.879 317.745 526.059C321.191 523.24 326.268 523.749 329.088 527.208C331.894 530.654 331.385 535.73 327.939 538.537Z" fill="#596774"/>
<path opacity="0.1" d="M333.839 524.689L256.094 429.571C260.506 419.652 259.344 407.658 251.982 398.679C247.491 393.184 241.435 389.712 234.973 388.394C239.868 391.97 244.267 396.434 246.578 402.007C248.431 406.431 248.797 411.665 247.074 416.193C246.134 418.686 244.581 419.548 245.716 421.792C246.787 423.907 248.993 425.93 250.455 427.77C260.362 440.299 270.283 452.828 280.19 465.345C291.808 480.001 303.412 494.684 315.029 509.354C320.616 516.414 326.203 523.475 331.79 530.536C333.187 532.285 334.871 533.655 336.724 534.595C337.116 531.149 336.163 527.573 333.813 524.676L333.839 524.689Z" fill="white"/>
<path d="M316.59 523.08L316.077 523.505C314.509 524.804 312.175 524.585 310.876 523.018L252.579 452.685C251.28 451.117 251.498 448.783 253.066 447.484L253.579 447.06C255.146 445.76 257.481 445.979 258.78 447.547L317.077 517.879C318.376 519.447 318.158 521.781 316.59 523.08Z" fill="#48525B"/>
<path d="M256.159 438.276L254.684 439.399L253.966 439.947L250.441 442.649L249.671 443.223L246.682 445.52C246.512 445.65 246.343 445.768 246.16 445.833C245.86 445.99 245.533 446.094 245.207 446.146H245.194C244.124 446.29 243.04 445.872 242.335 444.959L240.403 442.44C239.359 441.082 239.62 439.138 240.978 438.094L241.369 437.793L241.813 437.454L245.612 434.531L246.095 434.165L249.854 431.294L250.389 430.889L250.441 430.837C251.799 429.793 253.744 430.054 254.788 431.411L256.72 433.93C257.764 435.288 257.503 437.232 256.146 438.276H256.159Z" fill="#748593"/>
<path d="M246.173 445.846C245.873 446.003 245.546 446.107 245.22 446.159H245.207C244.724 445.259 244.267 444.358 243.81 443.445C242.923 441.604 242.087 439.738 241.369 437.793L241.813 437.454C242.936 439.229 243.889 441.069 244.829 442.936C245.285 443.901 245.742 444.854 246.173 445.846Z" fill="#596774"/>
<path d="M250.454 442.662L249.684 443.236C249.071 442.126 248.47 440.978 247.909 439.856C247.074 438.12 246.277 436.358 245.612 434.544L246.095 434.178C247.139 435.862 248.053 437.598 248.927 439.36C249.449 440.456 249.972 441.552 250.441 442.675L250.454 442.662Z" fill="#596774"/>
<path d="M254.697 439.399L253.979 439.947C253.287 438.746 252.647 437.493 252.021 436.253C251.238 434.635 250.494 432.991 249.854 431.294L250.389 430.889C251.355 432.468 252.204 434.113 253.026 435.757C253.613 436.958 254.175 438.172 254.684 439.399H254.697Z" fill="#596774"/>
<path d="M258.796 495.363L253.013 492.7C252.621 490.455 251.93 488.328 251.003 486.305L254.227 480.824C252.543 478.044 250.455 475.538 248.014 473.397L242.048 475.603C240.221 474.337 238.237 473.28 236.109 472.497L234.516 466.337C232.963 465.958 231.358 465.684 229.726 465.541C228.081 465.397 226.463 465.371 224.87 465.475L222.22 471.257C219.975 471.649 217.834 472.34 215.811 473.267L210.329 470.043C207.548 471.727 205.042 473.815 202.901 476.256L205.107 482.22C203.841 484.047 202.784 486.031 202.001 488.158L195.839 489.751C195.461 491.291 195.2 492.896 195.043 494.527C194.9 496.172 194.873 497.79 194.978 499.383L200.76 502.032C201.152 504.277 201.844 506.417 202.771 508.44L199.546 513.922C201.23 516.702 203.319 519.208 205.76 521.348L211.725 519.129C213.553 520.395 215.537 521.452 217.678 522.235L219.27 528.396C220.823 528.774 222.416 529.035 224.061 529.192C225.692 529.335 227.324 529.361 228.917 529.257L231.566 523.475C233.812 523.084 235.939 522.392 237.963 521.465L243.445 524.689C246.225 523.005 248.732 520.917 250.872 518.477L248.666 512.512C249.932 510.685 250.99 508.701 251.773 506.561L257.934 504.969C258.313 503.415 258.574 501.823 258.73 500.179C258.874 498.547 258.9 496.916 258.796 495.337V495.363ZM247.374 499.2C246.369 510.502 236.396 518.855 225.079 517.85C213.775 516.845 205.421 506.861 206.426 495.559C207.431 484.256 217.403 475.903 228.721 476.908C240.025 477.913 248.379 487.897 247.374 499.2Z" fill="#596774"/>
<path d="M226.893 522.262C213.161 522.262 202 511.103 202 497.373C202 483.643 213.161 472.484 226.893 472.484C240.625 472.484 251.786 483.643 251.786 497.373C251.786 511.103 240.625 522.262 226.893 522.262ZM226.893 473.998C213.997 473.998 203.515 484.478 203.515 497.373C203.515 510.267 213.997 520.748 226.893 520.748C239.79 520.748 250.272 510.267 250.272 497.373C250.272 484.478 239.79 473.998 226.893 473.998Z" fill="#48525B"/>
</g>
<mask id="mask1_755_2362" style="mask-type:luminance" maskUnits="userSpaceOnUse" x="0" y="357" width="173" height="157">
<path d="M172.892 357.175H0V514H172.892V357.175Z" fill="white"/>
</mask>
<g mask="url(#mask1_755_2362)">
<path d="M73.2684 474.794C64.601 470.161 54.7065 466.441 45.4387 468.112C36.7582 469.678 39.6299 479.701 43.4285 484.909C55.79 501.81 75.0567 512.408 92.4829 523.293C101.855 529.14 119.503 542.791 130.547 541.773C132.087 527.861 121.253 514.731 112.324 505.36C103.187 495.767 93.1748 486.879 81.9097 479.858C79.2338 478.187 76.3229 476.438 73.2554 474.794H73.2684Z" fill="#A1DEDE"/>
<mask id="mask2_755_2362" style="mask-type:luminance" maskUnits="userSpaceOnUse" x="39" y="467" width="92" height="75">
<path d="M73.2684 474.794C64.601 470.161 54.7065 466.441 45.4387 468.112C36.7582 469.678 39.6299 479.701 43.4285 484.909C55.79 501.81 75.0567 512.408 92.4829 523.293C101.855 529.14 119.503 542.791 130.547 541.773C132.087 527.861 121.253 514.731 112.324 505.36C103.187 495.767 93.1748 486.879 81.9097 479.858C79.2338 478.187 76.3229 476.438 73.2554 474.794H73.2684Z" fill="white"/>
</mask>
<g mask="url(#mask2_755_2362)">
<path d="M130.703 539.111C127.218 535.417 123.694 531.776 120.039 528.252C116.423 524.702 112.716 521.244 108.904 517.889C101.307 511.181 93.4359 504.786 85.1992 498.887C77.0278 492.909 68.504 487.415 59.7452 482.298C50.9864 477.195 41.9796 472.536 32.777 468.229C37.4892 470.122 42.1232 472.21 46.718 474.389C51.2866 476.608 55.8031 478.957 60.2543 481.424C69.1436 486.37 77.6936 491.904 85.9694 497.83C94.1799 503.833 102.103 510.241 109.583 517.145C117.062 524.037 124.137 531.358 130.703 539.098V539.111Z" fill="white"/>
<path d="M78.2549 493.222C76.4796 490.756 74.8218 488.224 73.1902 485.679C71.5454 483.147 69.979 480.55 68.4257 477.965C66.8985 475.355 65.3582 472.758 63.9223 470.095L61.7554 466.102C61.0767 464.744 60.3587 463.413 59.7191 462.043C60.6198 463.27 61.4422 464.536 62.3167 465.775L64.7969 469.586C66.4416 472.118 68.008 474.716 69.5613 477.3C71.0886 479.91 72.6289 482.52 74.0647 485.17C75.5137 487.819 76.9626 490.482 78.2679 493.222H78.2549Z" fill="white"/>
<path d="M90.042 501.654C86.2566 501.836 82.4711 501.862 78.6856 501.888C74.9001 501.915 71.1147 501.849 67.3422 501.771C63.5568 501.667 59.7844 501.562 55.9989 501.353L50.3337 501.04C48.441 500.883 46.5613 500.779 44.6686 500.583C46.5613 500.479 48.454 500.466 50.3468 500.401L56.025 500.348C59.8105 500.322 63.5959 500.388 67.3684 500.466C71.1538 500.57 74.9262 500.675 78.7117 500.883C82.4972 501.079 86.2696 501.288 90.042 501.654Z" fill="white"/>
<path d="M106.789 515.331C104.91 510.568 103.396 505.699 101.986 500.792C100.615 495.885 99.336 490.951 98.4353 485.901C100.328 490.664 101.829 495.532 103.239 500.44C104.61 505.347 105.889 510.293 106.789 515.331Z" fill="white"/>
</g>
<path d="M163.976 463.557C164.015 454.042 162.697 443.836 156.94 436.475C151.549 429.584 144.083 436.345 141.276 441.879C132.178 459.837 131.813 481.124 130.351 500.936C129.568 511.586 125.769 532.768 131.787 541.956C144.696 537.375 151.197 522.353 155.283 510.594C159.46 498.56 162.606 486.057 163.545 473.254C163.767 470.213 163.95 466.924 163.976 463.557Z" fill="#A1DEDE"/>
<mask id="mask3_755_2362" style="mask-type:luminance" maskUnits="userSpaceOnUse" x="128" y="433" width="36" height="109">
<path d="M163.976 463.557C164.015 454.042 162.697 443.836 156.94 436.475C151.549 429.584 144.083 436.345 141.276 441.879C132.178 459.837 131.813 481.124 130.351 500.936C129.568 511.586 125.769 532.768 131.787 541.956C144.696 537.375 151.197 522.353 155.283 510.594C159.46 498.56 162.606 486.057 163.545 473.254C163.767 470.213 163.95 466.924 163.976 463.557Z" fill="white"/>
</mask>
<g mask="url(#mask3_755_2362)">
<path d="M134.175 540.951C135.794 536.331 137.373 531.685 138.77 526.999C140.219 522.327 141.524 517.602 142.699 512.852C145.062 503.363 147.033 493.77 148.364 484.073C149.813 474.402 150.675 464.653 151.092 454.878C151.51 445.102 151.419 435.301 150.936 425.512C151.458 430.393 151.771 435.288 151.993 440.182C152.163 445.089 152.202 449.996 152.111 454.904C151.902 464.718 151.014 474.52 149.67 484.256C148.208 493.966 146.263 503.624 143.678 513.099C141.107 522.575 137.948 531.893 134.175 540.951Z" fill="white"/>
<path d="M150.114 475.734C151.445 473.136 152.907 470.617 154.382 468.112C155.844 465.593 157.397 463.139 158.938 460.672C160.517 458.232 162.096 455.791 163.754 453.403L166.247 449.827C167.122 448.665 167.957 447.464 168.858 446.316C168.205 447.621 167.474 448.887 166.783 450.166L164.59 453.938C163.128 456.457 161.574 458.91 160.021 461.377C158.442 463.818 156.862 466.258 155.204 468.647C153.547 471.048 151.889 473.424 150.087 475.734H150.114Z" fill="white"/>
<path d="M148.182 489.594C146.263 486.383 144.474 483.108 142.712 479.819C140.937 476.543 139.24 473.215 137.556 469.887C135.898 466.545 134.241 463.204 132.674 459.824L130.325 454.747C129.581 453.037 128.81 451.341 128.106 449.605C129.072 451.21 129.972 452.842 130.899 454.46L133.575 459.38C135.35 462.656 137.047 465.984 138.731 469.312C140.389 472.653 142.047 475.995 143.613 479.375C145.192 482.755 146.759 486.149 148.195 489.594H148.182Z" fill="white"/>
<path d="M143.952 509.993C147.268 506.313 150.844 502.933 154.486 499.618C158.154 496.329 161.888 493.118 165.895 490.208C162.579 493.888 159.003 497.281 155.361 500.583C151.693 503.872 147.96 507.083 143.952 509.993Z" fill="white"/>
<path d="M139.123 526.947C137.856 523.658 136.734 520.317 135.624 516.976C134.502 513.635 133.484 510.267 132.452 506.9C131.46 503.52 130.468 500.153 129.581 496.746L128.249 491.63C127.844 489.907 127.414 488.211 127.048 486.475C127.688 488.119 128.262 489.79 128.863 491.447L130.547 496.459C131.669 499.8 132.687 503.167 133.705 506.535C134.697 509.915 135.69 513.282 136.577 516.689C137.478 520.095 138.365 523.501 139.123 526.947Z" fill="white"/>
</g>
<path d="M98.7747 397.112C89.4285 383.304 77.5108 369.913 62.2775 365.098C48.0102 360.582 44.3944 377.901 45.9869 388.733C51.1822 423.868 71.7281 455.034 89.2849 485.13C98.7225 501.314 114.439 535.77 131.826 542.961C145.127 523.293 139.253 494.997 133.262 473.88C127.127 452.267 119.125 431.007 107.755 411.56C105.053 406.94 102.064 402.007 98.7616 397.125L98.7747 397.112Z" fill="#B5E8E9"/>
<mask id="mask4_755_2362" style="mask-type:luminance" maskUnits="userSpaceOnUse" x="45" y="364" width="95" height="179">
<path d="M98.7747 397.112C89.4285 383.304 77.5108 369.913 62.2775 365.098C48.0102 360.582 44.3944 377.901 45.9869 388.733C51.1822 423.868 71.7281 455.034 89.2849 485.13C98.7225 501.314 114.439 535.77 131.826 542.961C145.127 523.293 139.253 494.997 133.262 473.88C127.127 452.267 119.125 431.007 107.755 411.56C105.053 406.94 102.064 402.007 98.7616 397.125L98.7747 397.112Z" fill="white"/>
</mask>
<g mask="url(#mask4_755_2362)">
<path d="M134.149 539.085C131.969 530.758 129.554 522.483 126.931 514.287C124.346 506.078 121.553 497.934 118.524 489.881C115.483 481.829 112.324 473.841 108.917 465.932C105.51 458.036 101.855 450.244 98.0436 442.531C90.4596 427.091 82.0011 412.082 72.8376 397.53C68.2559 390.247 63.4784 383.095 58.5181 376.048C53.597 368.987 48.467 362.07 43.1674 355.283C48.6237 361.939 53.9364 368.739 59.0272 375.682C64.0919 382.652 68.9738 389.765 73.673 396.995C83.0323 411.469 91.5039 426.53 99.2054 441.957C106.815 457.436 113.629 473.306 119.464 489.529C122.375 497.647 125.077 505.83 127.544 514.091C129.972 522.366 132.165 530.693 134.149 539.072V539.085Z" fill="white"/>
<path d="M91.6867 428.736C91.1515 423.633 90.7599 418.517 90.3944 413.387C90.0159 408.271 89.7679 403.142 89.4415 398.026C89.2327 392.897 88.9586 387.781 88.8019 382.652L88.58 374.964C88.5539 372.393 88.4887 369.835 88.5017 367.264C88.7758 369.822 88.9716 372.38 89.2196 374.938L89.794 382.612C90.1595 387.729 90.4205 392.858 90.7338 397.974C90.9427 403.103 91.2168 408.219 91.3734 413.348C91.5301 418.477 91.6737 423.607 91.6737 428.749L91.6867 428.736Z" fill="white"/>
<path d="M102.73 450.714C96.9864 447.83 91.3212 444.815 85.6691 441.774C80.004 438.746 74.4041 435.614 68.7781 432.534C63.1913 429.362 57.5914 426.243 52.0306 423.032L43.7157 418.19C40.9614 416.533 38.1941 414.914 35.4659 413.218C38.3377 414.653 41.1703 416.154 44.0289 417.629L52.5267 422.158C58.1788 425.186 63.7917 428.318 69.4177 431.398C74.9915 434.57 80.6044 437.689 86.1652 440.9C91.7259 444.11 97.2605 447.347 102.743 450.714H102.73Z" fill="white"/>
<path d="M117.049 484.478C117.676 480.184 118.446 475.929 119.242 471.675C120.025 467.42 120.9 463.178 121.775 458.95C122.688 454.721 123.589 450.492 124.607 446.29L126.121 439.973C126.67 437.885 127.179 435.77 127.779 433.695C127.479 435.836 127.087 437.976 126.748 440.104L125.586 446.486C124.803 450.74 123.928 454.982 123.054 459.211C122.14 463.439 121.239 467.668 120.221 471.87C119.229 476.086 118.211 480.289 117.049 484.465V484.478Z" fill="white"/>
<path d="M127.14 513.856C122.245 510.215 117.441 506.456 112.65 502.671C107.86 498.9 103.148 495.036 98.383 491.225C93.6969 487.336 88.9716 483.473 84.3115 479.544L77.341 473.619C75.0436 471.609 72.7201 469.625 70.4619 467.589C72.9159 469.404 75.3178 471.283 77.7457 473.123L84.9511 478.761C89.7417 482.533 94.454 486.396 99.2184 490.207C103.905 494.11 108.643 497.96 113.29 501.888C117.95 505.83 122.597 509.784 127.14 513.843V513.856Z" fill="white"/>
</g>
</g>
<mask id="mask5_755_2362" style="mask-type:luminance" maskUnits="userSpaceOnUse" x="471" y="357" width="173" height="157">
<path d="M471.095 514H643.987V357.175H471.095V514Z" fill="white"/>
</mask>
<g mask="url(#mask5_755_2362)">
<path d="M570.732 474.794C579.399 470.161 589.294 466.441 598.561 468.112C607.242 469.678 604.37 479.701 600.572 484.909C588.21 501.81 568.943 512.408 551.517 523.293C542.145 529.14 524.497 542.791 513.454 541.773C511.913 527.861 522.748 514.731 531.676 505.36C540.813 495.767 550.825 486.879 562.09 479.858C564.766 478.187 567.677 476.438 570.745 474.794H570.732Z" fill="#A1DEDE"/>
<mask id="mask6_755_2362" style="mask-type:luminance" maskUnits="userSpaceOnUse" x="513" y="467" width="92" height="75">
<path d="M570.732 474.794C579.399 470.161 589.294 466.441 598.561 468.112C607.242 469.678 604.37 479.701 600.572 484.909C588.21 501.81 568.943 512.408 551.517 523.293C542.145 529.14 524.497 542.791 513.454 541.773C511.913 527.861 522.748 514.731 531.676 505.36C540.813 495.767 550.825 486.879 562.09 479.858C564.766 478.187 567.677 476.438 570.745 474.794H570.732Z" fill="white"/>
</mask>
<g mask="url(#mask6_755_2362)">
<path d="M513.297 539.111C519.863 531.358 526.938 524.036 534.417 517.158C541.897 510.267 549.82 503.846 558.031 497.842C566.307 491.917 574.857 486.383 583.746 481.437C588.197 478.97 592.701 476.621 597.282 474.402C601.877 472.223 606.511 470.135 611.223 468.242C602.021 472.549 593.014 477.195 584.255 482.311C575.509 487.414 566.985 492.922 558.801 498.9C550.564 504.786 542.693 511.181 535.096 517.902C531.298 521.257 527.59 524.702 523.962 528.265C520.307 531.789 516.782 535.43 513.297 539.124V539.111Z" fill="white"/>
<path d="M565.745 493.222C567.064 490.482 568.5 487.819 569.949 485.17C571.397 482.507 572.925 479.897 574.452 477.3C576.005 474.703 577.572 472.118 579.216 469.586L581.697 465.775C582.558 464.536 583.393 463.27 584.294 462.043C583.655 463.413 582.937 464.744 582.258 466.102L580.091 470.095C578.642 472.758 577.115 475.368 575.588 477.965C574.034 480.55 572.468 483.147 570.823 485.679C569.191 488.224 567.534 490.756 565.758 493.222H565.745Z" fill="white"/>
<path d="M553.945 501.654C557.717 501.288 561.503 501.079 565.275 500.883C569.048 500.675 572.833 500.57 576.619 500.466C580.404 500.388 584.177 500.322 587.962 500.348L593.64 500.401C595.533 500.466 597.426 500.479 599.319 500.583C597.426 500.779 595.546 500.883 593.653 501.04L587.988 501.353C584.216 501.562 580.43 501.667 576.645 501.771C572.859 501.849 569.087 501.915 565.301 501.888C561.516 501.875 557.731 501.836 553.945 501.654Z" fill="white"/>
<path d="M537.211 515.331C538.111 510.28 539.391 505.347 540.761 500.44C542.171 495.545 543.672 490.664 545.565 485.901C544.664 490.951 543.385 495.885 542.014 500.792C540.605 505.686 539.09 510.568 537.211 515.331Z" fill="white"/>
</g>
<path d="M480.024 463.557C479.985 454.042 481.303 443.836 487.06 436.475C492.451 429.584 499.917 436.345 502.724 441.879C511.822 459.837 512.187 481.124 513.649 500.936C514.433 511.586 518.231 532.768 512.213 541.956C499.304 537.375 492.803 522.353 488.717 510.594C484.54 498.56 481.395 486.057 480.455 473.254C480.233 470.213 480.05 466.924 480.024 463.557Z" fill="#A1DEDE"/>
<mask id="mask7_755_2362" style="mask-type:luminance" maskUnits="userSpaceOnUse" x="480" y="433" width="36" height="109">
<path d="M480.024 463.557C479.985 454.042 481.303 443.836 487.06 436.475C492.451 429.584 499.917 436.345 502.724 441.879C511.822 459.837 512.187 481.124 513.649 500.936C514.433 511.586 518.231 532.768 512.213 541.956C499.304 537.375 492.803 522.353 488.717 510.594C484.54 498.56 481.395 486.057 480.455 473.254C480.233 470.213 480.05 466.924 480.024 463.557Z" fill="white"/>
</mask>
<g mask="url(#mask7_755_2362)">
<path d="M509.825 540.951C506.052 531.893 502.906 522.575 500.322 513.099C497.737 503.624 495.779 493.979 494.33 484.256C492.973 474.52 492.098 464.718 491.889 454.904C491.798 449.996 491.824 445.089 492.007 440.182C492.216 435.274 492.542 430.38 493.064 425.512C492.581 435.301 492.477 445.102 492.907 454.878C493.325 464.653 494.187 474.402 495.636 484.073C496.98 493.757 498.938 503.35 501.301 512.852C502.476 517.602 503.794 522.314 505.23 526.999C506.627 531.698 508.206 536.331 509.825 540.951Z" fill="white"/>
<path d="M493.887 475.734C492.098 473.424 490.427 471.048 488.77 468.647C487.112 466.258 485.532 463.818 483.953 461.377C482.4 458.924 480.859 456.457 479.384 453.938L477.191 450.166C476.499 448.887 475.769 447.621 475.116 446.316C476.017 447.464 476.852 448.652 477.727 449.827L480.22 453.403C481.877 455.791 483.457 458.232 485.036 460.672C486.59 463.126 488.13 465.593 489.592 468.112C491.067 470.617 492.529 473.136 493.86 475.734H493.887Z" fill="white"/>
<path d="M495.805 489.594C497.241 486.136 498.795 482.755 500.387 479.375C501.954 475.995 503.611 472.653 505.269 469.312C506.953 465.984 508.65 462.656 510.425 459.38L513.101 454.46C514.041 452.842 514.929 451.21 515.895 449.605C515.19 451.341 514.406 453.037 513.675 454.747L511.326 459.824C509.759 463.204 508.102 466.545 506.444 469.887C504.76 473.215 503.063 476.543 501.288 479.819C499.526 483.108 497.737 486.383 495.818 489.594H495.805Z" fill="white"/>
<path d="M500.048 509.993C496.053 507.07 492.307 503.859 488.639 500.583C484.997 497.268 481.421 493.888 478.105 490.208C482.112 493.118 485.846 496.329 489.514 499.618C493.156 502.933 496.732 506.313 500.048 509.993Z" fill="white"/>
<path d="M504.877 526.947C505.621 523.501 506.509 520.095 507.423 516.689C508.31 513.282 509.303 509.902 510.295 506.535C511.313 503.167 512.344 499.8 513.454 496.459L515.137 491.447C515.751 489.79 516.312 488.119 516.952 486.475C516.586 488.198 516.142 489.907 515.751 491.63L514.419 496.746C513.532 500.153 512.54 503.533 511.548 506.9C510.53 510.267 509.498 513.635 508.376 516.976C507.266 520.317 506.144 523.658 504.877 526.947Z" fill="white"/>
</g>
<path d="M545.212 397.112C554.559 383.304 566.476 369.913 581.71 365.098C595.977 360.582 599.593 377.901 598 388.733C592.805 423.868 572.259 455.034 554.702 485.13C545.265 501.314 529.548 535.77 512.161 542.961C498.86 523.293 504.734 494.997 510.725 473.88C516.861 452.267 524.862 431.007 536.232 411.56C538.934 406.94 541.923 402.007 545.225 397.125L545.212 397.112Z" fill="#B5E8E9"/>
<mask id="mask8_755_2362" style="mask-type:luminance" maskUnits="userSpaceOnUse" x="504" y="364" width="95" height="179">
<path d="M545.212 397.112C554.559 383.304 566.476 369.913 581.71 365.098C595.977 360.582 599.593 377.901 598 388.733C592.805 423.868 572.259 455.034 554.702 485.13C545.265 501.314 529.548 535.77 512.161 542.961C498.86 523.293 504.734 494.997 510.725 473.88C516.861 452.267 524.862 431.007 536.232 411.56C538.934 406.94 541.923 402.007 545.225 397.125L545.212 397.112Z" fill="white"/>
</mask>
<g mask="url(#mask8_755_2362)">
<path d="M509.838 539.085C511.822 530.706 514.015 522.366 516.443 514.104C518.897 505.843 521.599 497.66 524.523 489.542C530.358 473.319 537.172 457.449 544.782 441.97C552.483 426.543 560.942 411.482 570.314 397.008C575 389.778 579.882 382.665 584.96 375.695C590.064 368.752 595.363 361.965 600.82 355.296C595.533 362.096 590.39 369 585.469 376.061C580.509 383.095 575.731 390.26 571.149 397.543C561.986 412.095 553.527 427.104 545.943 442.544C542.132 450.244 538.477 458.036 535.07 465.945C531.663 473.841 528.491 481.842 525.463 489.894C522.434 497.947 519.641 506.091 517.056 514.3C514.433 522.496 512.031 530.771 509.838 539.098V539.085Z" fill="white"/>
<path d="M552.313 428.736C552.313 423.594 552.444 418.464 552.614 413.335C552.77 408.206 553.044 403.09 553.253 397.961C553.566 392.845 553.828 387.715 554.193 382.599L554.767 374.925C555.002 372.367 555.198 369.809 555.485 367.251C555.498 369.822 555.433 372.38 555.407 374.951L555.185 382.639C555.028 387.768 554.754 392.884 554.545 398.013C554.232 403.129 553.971 408.258 553.593 413.374C553.227 418.491 552.835 423.607 552.3 428.723L552.313 428.736Z" fill="white"/>
<path d="M541.27 450.714C546.74 447.36 552.287 444.123 557.848 440.9C563.396 437.676 569.009 434.57 574.595 431.398C580.221 428.318 585.834 425.186 591.486 422.158L599.984 417.629C602.843 416.167 605.675 414.653 608.547 413.218C605.819 414.914 603.039 416.533 600.298 418.19L591.983 423.032C586.422 426.243 580.822 429.362 575.235 432.534C569.596 435.614 563.996 438.746 558.344 441.774C552.692 444.802 547.014 447.817 541.283 450.714H541.27Z" fill="white"/>
<path d="M526.938 484.478C525.776 480.301 524.758 476.099 523.766 471.883C522.761 467.681 521.847 463.452 520.933 459.224C520.058 454.995 519.171 450.753 518.401 446.499L517.239 440.116C516.9 437.976 516.508 435.849 516.208 433.708C516.795 435.796 517.304 437.898 517.866 439.986L519.38 446.303C520.385 450.505 521.299 454.734 522.212 458.963C523.087 463.204 523.975 467.433 524.745 471.688C525.541 475.942 526.311 480.197 526.938 484.491V484.478Z" fill="white"/>
<path d="M516.86 513.856C521.416 509.797 526.063 505.843 530.71 501.901C535.37 497.96 540.095 494.11 544.782 490.22C549.533 486.409 554.258 482.546 559.049 478.774L566.254 473.136C568.682 471.296 571.084 469.417 573.538 467.603C571.267 469.652 568.943 471.622 566.659 473.632L559.689 479.558C555.028 483.499 550.303 487.349 545.617 491.238C540.866 495.049 536.14 498.913 531.35 502.684C526.559 506.456 521.755 510.215 516.86 513.869V513.856Z" fill="white"/>
</g>
</g>
</g>
<defs>
<clipPath id="clip0_755_2362">
<rect width="644" height="514" fill="white"/>
</clipPath>
</defs>
</svg>
